<svg width="160" height="48" fill="none" xmlns="http://www.w3.org/2000/svg"><path d="M85.23 46.864v-12.66h5.009c3.129 0 5.516 1.013 5.516 4.34 0 3.329-2.387 4.323-5.516 4.341h-1.664v3.98H85.23zm3.345-6.872h1.827c1.013 0 1.917-.308 1.917-1.447 0-1.14-.904-1.447-1.917-1.447h-1.827v2.894zm-19.93 6.872l4.974-12.66h3.617l4.974 12.66h-3.437l-.723-1.99h-5.245l-.723 1.99h-3.436zm5.155-4.702h3.255l-1.302-3.653a6.688 6.688 0 01-.325-1.284 6.697 6.697 0 01-.326 1.284L73.8 42.162zm-17.709 4.702v-12.66h5.715c2.767 0 4.431 1.013 4.431 3.202 0 1.392-.67 2.315-1.88 2.748 1.356.398 2.386 1.375 2.386 3.13 0 2.875-2.748 3.58-5.154 3.58h-5.498zm3.328-2.622h2.279c1.012 0 1.682-.326 1.682-1.32 0-.995-.67-1.32-1.682-1.32h-2.28v2.64zm.018-5.082l2.062.018c.886 0 1.392-.452 1.392-1.176 0-.723-.506-1.175-1.392-1.175h-2.062v2.333zm-17.253 7.704v-12.66h3.346v3.98h1.664c3.129.017 5.516 1.012 5.516 4.34s-2.387 4.34-5.516 4.34h-5.01zm3.346-2.893h1.827c1.012 0 1.917-.308 1.917-1.447 0-1.14-.905-1.447-1.917-1.447H45.53v2.894zm-18.283 3.056c-.47 0-.995-.072-1.555-.253v-2.912c.235.072.524.109.868.072 2.043-.217 2.007-5.895 2.297-9.73h9.133v12.66h-3.346V37.19h-2.73c-.399 5.19-1.032 9.82-4.667 9.838zm-10.807.109c-.65 0-1.338-.145-2.025-.344v-2.767a4.37 4.37 0 001.465.253c.796 0 1.356-.217 1.646-.868l.199-.434-4.938-8.772h3.708l2.785 5.77 2.279-5.77h3.707l-4.575 9.767c-1.14 2.441-2.532 3.165-4.25 3.165zM.004 46.864v-12.66h9.604v2.984H3.35v1.502h2.496c2.568 0 4.829.922 4.829 4.087 0 3.165-2.26 4.087-4.829 4.087H.004zm3.346-2.893h2.46c.778 0 1.429-.217 1.429-1.194s-.651-1.194-1.43-1.194H3.35v2.388zm156.16-15.192h-3.346v-5.173c0-.687.018-1.483.072-2.08l-4.955 7.253h-3.165v-12.66h3.346v5.172c0 .706-.019 1.501-.073 2.098l4.956-7.27h3.165v12.66zm-8.681-14.197v-2.28c.976.598 1.953.76 2.984.76s2.007-.162 2.984-.76v2.28c-.778.524-1.646.832-2.984.832-1.339 0-2.207-.308-2.984-.832zm-6.904 14.197h-3.346v-5.173c0-.687.018-1.483.072-2.08l-4.955 7.253h-3.165v-12.66h3.346v5.172c0 .706-.018 1.501-.073 2.098l4.956-7.27h3.165v12.66zm-25.972 0v-12.66h3.346v4.792h1.591l2.876-4.792h3.707l-3.978 6.167 4.159 6.493h-3.707l-3.075-4.884h-1.573v4.884h-3.346zm-7.348.271c-3.472 0-6.927-1.899-6.927-6.42 0-4.775 3.437-6.782 6.855-6.782 1.284 0 2.568.27 3.671.795v3.165c-.777-.65-1.935-1.03-3.092-1.03-2.008 0-3.997 1.103-3.997 3.852 0 2.46 1.989 3.472 3.96 3.472 1.303 0 2.496-.398 3.22-1.103v3.255c-1.104.525-2.351.796-3.69.796zm-20.483-.271v-12.66h5.715c2.767 0 4.431 1.012 4.431 3.2 0 1.393-.67 2.316-1.881 2.75 1.356.398 2.387 1.374 2.387 3.129 0 2.875-2.749 3.58-5.154 3.58h-5.498zm3.327-2.623h2.28c1.012 0 1.681-.325 1.681-1.32 0-.995-.67-1.32-1.682-1.32H93.45v2.64zm.018-5.082l2.062.018c.886 0 1.393-.452 1.393-1.175 0-.724-.507-1.176-1.393-1.176h-2.062v2.333zM79.785 29.05c-4.521 0-6.782-3.074-6.782-6.601s2.26-6.601 6.782-6.601 6.782 3.074 6.782 6.6c0 3.528-2.26 6.602-6.782 6.602zm-3.345-6.6c0 2.025 1.158 3.527 3.346 3.527 2.189 0 3.346-1.502 3.346-3.527 0-2.026-1.157-3.527-3.346-3.527-2.188 0-3.346 1.501-3.346 3.527zm-10.063 6.6c-3.473 0-6.927-1.899-6.927-6.42 0-4.775 3.436-6.782 6.854-6.782 1.284 0 2.569.27 3.672.795v3.165c-.778-.65-1.935-1.03-3.093-1.03-2.007 0-3.997 1.103-3.997 3.852 0 2.46 1.99 3.472 3.961 3.472 1.302 0 2.496-.398 3.22-1.103v3.255c-1.104.525-2.352.796-3.69.796zm-10.503-.271h-3.346v-5.173c0-.687.018-1.483.073-2.08l-4.956 7.253H44.48v-12.66h3.346v5.172c0 .706-.018 1.501-.072 2.098l4.955-7.27h3.165v12.66zm-25.283 0v-12.66h5.01c3.129 0 5.516 1.012 5.516 4.34S38.73 24.782 35.6 24.8h-1.664v3.98H30.59zm3.346-6.873h1.827c1.012 0 1.917-.307 1.917-1.447 0-1.14-.905-1.447-1.917-1.447h-1.827v2.894zM20.255 29.05c-4.522 0-6.782-3.074-6.782-6.601s2.26-6.601 6.782-6.601c4.521 0 6.782 3.074 6.782 6.6 0 3.528-2.26 6.602-6.782 6.602zm-3.346-6.601c0 2.025 1.157 3.527 3.346 3.527 2.188 0 3.346-1.502 3.346-3.527 0-2.026-1.158-3.527-3.346-3.527-2.189 0-3.346 1.501-3.346 3.527zM.004 28.779v-12.66h9.604v2.984H3.35v1.5h2.496c2.568 0 4.829.923 4.829 4.088s-2.26 4.088-4.829 4.088H.004zm3.346-2.894h2.46c.778 0 1.429-.217 1.429-1.194 0-.976-.651-1.193-1.43-1.193H3.35v2.387z" fill="#FF8D09"/><path d="M70.872 7.303c-1.14 0-2.324-.715-2.324-2.261 0-1.583 1.22-2.297 2.351-2.297.488 0 .968.109 1.338.353v.705c-.325-.253-.786-.389-1.248-.389-.84 0-1.718.47-1.718 1.61 0 1.112.85 1.61 1.7 1.61.47 0 .95-.136 1.311-.353v.723c-.406.2-.868.299-1.41.299zm-6.565-.109v-4.34h.724v1.808h.877l1.374-1.808h.841l-1.646 2.16 1.845 2.18h-.85l-1.591-1.863h-.85v1.863h-.724zm-2.847.109c-1.284 0-2.405-.733-2.405-2.28 0-1.518 1.13-2.278 2.16-2.278 1.674 0 2.289 1.366 2.017 2.595h-3.454c.09.914.913 1.294 1.79 1.294.534 0 1.059-.145 1.43-.353v.705c-.398.208-.968.317-1.538.317zm-1.682-2.596h2.812c.064-.46-.226-1.293-1.329-1.293-.741 0-1.429.443-1.483 1.293zm-5.821 2.559c-.163 0-.335-.027-.525-.1v-.569c.1.036.2.054.29.054.768 0 1.021-1.464 1.103-3.797h3.192v4.34h-.724V3.523H55.53c-.145 2.224-.452 3.743-1.573 3.743zm-5.263-.072v-4.34h3.961v4.34h-.723V3.523h-2.514v3.671h-.724zm-6.075 0v-4.34h.786l1.583 2.405 1.582-2.405h.787v4.34h-.687V3.921l-1.41 2.143h-.543L43.306 3.92v3.273h-.687zm-3.353.109c-1.175 0-2.315-.796-2.315-2.28 0-1.482 1.14-2.278 2.315-2.278 1.185 0 2.315.796 2.315 2.279 0 1.483-1.13 2.279-2.315 2.279zm-1.591-2.28c0 1.005.705 1.592 1.591 1.592s1.592-.587 1.592-1.591-.706-1.592-1.592-1.592c-.886 0-1.591.588-1.591 1.592zM32.71 7.194v-4.34h.724v1.808h.877l1.374-1.808h.841l-1.645 2.16 1.844 2.18h-.85l-1.591-1.863h-.85v1.863h-.724zm-7.603 0v-4.34h.723v3.174l2.659-3.174h.615v4.34h-.724V4.02l-2.658 3.174h-.615zm.732-5.39v-.65c.453.298.823.397 1.266.397.444 0 .814-.099 1.266-.397v.65c-.406.29-.832.38-1.266.38-.434 0-.859-.09-1.266-.38zm-4.085 5.499c-1.175 0-2.315-.796-2.315-2.28 0-1.482 1.14-2.278 2.315-2.278 1.185 0 2.315.796 2.315 2.279 0 1.483-1.13 2.279-2.315 2.279zm-1.591-2.28c0 1.005.705 1.592 1.591 1.592.887 0 1.592-.587 1.592-1.591s-.705-1.592-1.592-1.592c-.886 0-1.591.588-1.591 1.592zm-5.822 2.243c-.162 0-.334-.027-.524-.1v-.569c.1.036.199.054.29.054.768 0 1.021-1.464 1.103-3.797h3.192v4.34h-.724V3.523h-1.763c-.145 2.224-.452 3.743-1.574 3.743zm-5.297-.072v-4.34h.723v3.174l2.659-3.174h.615v4.34h-.724V4.02L9.66 7.194h-.615zm-9.04 0l2.053-3.246L.194.864h.868l1.601 2.74h1.148V.864h.76v2.74h1.14l1.6-2.74h.868L6.316 3.948 8.37 7.194h-.868L5.7 4.328H4.57v2.866h-.76V4.328H2.672l-1.8 2.866H.005z" fill="#1B1B1B"/></svg>